<?xml version="1.0" encoding="utf-8"?>
<svg id="master-artboard" viewBox="0 0 512 512" version="1.1" xmlns="http://www.w3.org/2000/svg" x="0px" y="0px" style="enable-background:new 0 0 1400 980;" width="512px" height="512px"><rect id="ee-background" x="0" y="0" width="512" height="512" style="fill: white; fill-opacity: 0; pointer-events: none;"/><path d="M 158.84971618652344 81.70643615722656 L 159.54771423339844 323.135498046875 L 197.6034698486328 323.1585998535156 L 197.56492614746094 284.8757629394531 L 289.7534484863281 284.4327392578125 L 268.5798034667969 251.43040466308594 L 197.18101501464844 251.99142456054688 L 196.3599395751953 194.59381103515625 L 228.28817749023438 192.42259216308594" style="fill: rgb(151, 69, 120); fill-opacity: 1; stroke: rgb(0, 0, 0); stroke-opacity: 1; stroke-width: 0; paint-order: stroke;" transform="matrix(0.65480207202959, -1.0254317648532532, 1.025419367088384, 0.6548020720295201, -174.11933935218656, 265.90433072588814)"/><path d="M 188.4824676513672 271.3954162597656 L 220.94442749023438 291.2188415527344 C 218.87821538033035 288.6149460130343 216.7700972158399 302.9084112216263 219.7823944091797 312.82391357421875 C 221.9288075393812 319.88918427930383 225.24043832164995 327.41351697665755 235.41000366210938 332.3569641113281 C 241.78604398194182 337.18907265856836 252.62382695981194 337.47314459155047 260.0158996582031 335.0341796875 C 268.4239196777344 332.260009765625 279.7156677246094 324.715087890625 279.31292724609375 322.7754211425781 L 387.1775207519531 153.51397705078125 L 437.60308837890625 153.1168975830078 L 314.27484130859375 345.1419372558594 C 310.29706205694356 350.94327331041154 259.5322348759114 388.82623603196197 217.9100341796875 359.70428466796875 C 207.36526303165843 353.56613913682276 169.35441796984952 311.7919483417797 188.4824676513672 271.3954162597656 Z" style="fill: rgb(135, 185, 255); fill-opacity: 1; stroke: rgb(0, 0, 0); stroke-opacity: 1; stroke-width: 0; paint-order: fill;" transform="matrix(1, 0, 0, 1.0000000000000002, 0, 4.614722678643666)"/><path d="M 424.6810607910156 280.4724426269531" style="fill: rgb(0, 0, 0); fill-opacity: 1; stroke: rgb(0, 0, 0); stroke-opacity: 1; stroke-width: 0; paint-order: stroke;"/><path d="M 181.76504516601562 302.3285217285156" style="fill: rgb(135, 185, 255); fill-opacity: 1; stroke: rgb(0, 0, 0); stroke-opacity: 1; stroke-width: 0; paint-order: stroke;"/></svg>