<?xml version="1.0" encoding="utf-8"?>
<svg id="master-artboard" xmlns="http://www.w3.org/2000/svg" viewBox="0 0 500 500" width="500px" height="500px"><g transform="matrix(-0.5559024810791017, 0.7253597378730775, -0.7253597378730775, -0.5559024810791017, 434.9463768866758, 189.73489990874083)"><rect id="ee-background" x="0" y="0" width="512" height="512" style="fill: white; fill-opacity: 0; pointer-events: none;"/><path d="M 158.84971618652344 81.70643615722656 L 159.54771423339844 323.135498046875 L 197.6034698486328 323.1585998535156 L 197.56492614746094 284.8757629394531 L 289.7534484863281 284.4327392578125 L 268.5798034667969 251.43040466308594 L 197.18101501464844 251.99142456054688 L 196.3599395751953 194.59381103515625 L 228.28817749023438 192.42259216308594" style="fill: rgb(151, 69, 120); fill-opacity: 1; stroke: rgb(0, 0, 0); stroke-opacity: 1; stroke-width: 0; paint-order: stroke;" transform="matrix(-1.1411653757095337, 0.8598271012306214, -0.859816014766693, -1.141157627105713, 671.6595914370176, 99.29003171201009)"/><path d="M 424.6810607910156 280.4724426269531" style="fill: rgb(0, 0, 0); fill-opacity: 1; stroke: rgb(0, 0, 0); stroke-opacity: 1; stroke-width: 0; paint-order: stroke;"/><path d="M 181.76504516601562 302.3285217285156" style="fill: rgb(135, 185, 255); fill-opacity: 1; stroke: rgb(0, 0, 0); stroke-opacity: 1; stroke-width: 0; paint-order: stroke;"/><path d="M -264.0695495605469 163.24075317382812" style="fill: rgb(159, 151, 153); fill-opacity: 1; stroke: rgb(159, 151, 153); stroke-opacity: 1; stroke-width: 6; paint-order: fill;"/><path d="M 31.769794464111328 262.4115295410156 L 108.95240020751953 15.565406799316406 C 119.74147464159176 -52.72734196157159 34.395392417907715 -56.6168327331543 22.371840476989746 -9.168004989624023 C 10.348290853325503 38.28082227438981 -47.4066904075811 236.9690087356029 -46.92877244949341 237.15794372558594" style="fill: rgb(188, 188, 188); fill-opacity: 1; stroke: rgb(0, 0, 0); stroke-opacity: 1; stroke-width: 0; paint-order: fill;" transform="matrix(-0.9612668156623841, 0.21632836759090418, -0.21632836759090418, -0.9612668156623841, 160.43904602987595, 189.43268588934154)"/></g><g transform="matrix(0.17959490418434143, 0, 0, 0.17959490418434143, 224.54064037662255, 222.92662922279482)"><g id="g-3" transform="matrix(1, 0, 0, 1, 0, 0)">
	<g id="g-4">
		<path class="st0" d="M652,46c27.6,0,50,22.4,50,50s-22.4,50-50,50s-50-22.4-50-50S624.4,46,652,46z" style="fill: rgb(151, 69, 119);"/>
	</g>
</g></g></svg>