<?xml version="1.0" encoding="utf-8"?>
<svg id="master-artboard" xmlns="http://www.w3.org/2000/svg" viewBox="0 0 500 500" width="500px" height="500px"><g transform="matrix(0.9138770103454589, 0, 0, 0.9138770103454589, 42.02441732329794, 34.5307734850916)"><rect id="ee-background" x="0" y="0" width="512" height="512" style="fill: white; fill-opacity: 0; pointer-events: none;"/><path d="M 158.84971618652344 81.70643615722656 L 159.54771423339844 323.135498046875 L 197.6034698486328 323.1585998535156 L 197.56492614746094 284.8757629394531 L 289.7534484863281 284.4327392578125 L 268.5798034667969 251.43040466308594 L 197.18101501464844 251.99142456054688 L 196.3599395751953 194.59381103515625 L 228.28817749023438 192.42259216308594" style="fill: rgb(151, 69, 120); fill-opacity: 1; stroke: rgb(0, 0, 0); stroke-opacity: 1; stroke-width: 0; paint-order: stroke;" transform="matrix(-0.7562344785899707, -0.9530932730361548, 0.9530896030673928, -0.7562225861702976, 157.02033712109727, 535.3159029225059)"/><path d="M 424.6810607910156 280.4724426269531" style="fill: rgb(0, 0, 0); fill-opacity: 1; stroke: rgb(0, 0, 0); stroke-opacity: 1; stroke-width: 0; paint-order: stroke;"/><path d="M 181.76504516601562 302.3285217285156" style="fill: rgb(135, 185, 255); fill-opacity: 1; stroke: rgb(0, 0, 0); stroke-opacity: 1; stroke-width: 0; paint-order: stroke;"/><path d="M 126.77114868164062 324.9142761230469 L 348.0956115722656 139.09730529785156 L 364.6507568359375 156.7432861328125 L 276.77894592285156 238.4807586669922 C 270.5042945489237 243.62693855687576 262.0250639003341 281.43710259423375 272.79693603515625 282.84051513671875 C 254.67112365888332 276.3165179674965 118.10912602289594 326.65786964234456 126.77114868164062 324.9142761230469 Z" style="fill: rgb(159, 151, 153); fill-opacity: 1; stroke: rgb(159, 151, 153); stroke-opacity: 1; stroke-width: 6; paint-order: stroke;" transform="matrix(0.9996686577796936, 0.025717828422784802, -0.025717828422784802, 0.9996686577796936, 1.8911546193562145, -2.5070476578033194)"/><path d="M -264.0695495605469 163.24075317382812" style="fill: rgb(159, 151, 153); fill-opacity: 1; stroke: rgb(159, 151, 153); stroke-opacity: 1; stroke-width: 6; paint-order: fill;"/></g><g transform="matrix(0.12911348044872284, 0, 0, 0.12911348044872284, 71.62276655010454, 319.242217777025)"><g id="g-1" transform="matrix(1, 0, 0, 1, 0, 0)">
	<g id="g-2">
		<path class="st0" d="M652,46c27.6,0,50,22.4,50,50s-22.4,50-50,50s-50-22.4-50-50S624.4,46,652,46z" style="fill: rgb(159, 151, 153); fill-opacity: 1;"/>
	</g>
</g></g><g transform="matrix(0.12911348044872284, 0, 0, 0.12911348044872284, 176.63740869690832, 259.15453092953896)"><g id="g-3" transform="matrix(1, 0, 0, 1, 0, 0)">
	<g id="g-4">
		<path class="st0" d="M652,46c27.6,0,50,22.4,50,50s-22.4,50-50,50s-50-22.4-50-50S624.4,46,652,46z" style="fill: rgb(255, 255, 255); fill-opacity: 1;"/>
	</g>
</g></g></svg>